<svg width="42" height="42" viewBox="0 0 42 42" fill="none" xmlns="http://www.w3.org/2000/svg">
<path d="M24.5 17.5C24.5 19.2833 23.961 20.937 23.044 22.3195L18.0128 17.2882C17.6838 16.9592 17.5 16.5147 17.5 16.051V8.92675C21.4935 9.737 24.5 13.2668 24.5 17.5ZM14 16.7755V8.92675C9.5375 9.83325 6.307 14.1348 7.12775 19.019C7.6965 22.4035 10.3127 25.2192 13.6535 26.005C16.226 26.6087 18.6585 26.0627 20.5695 24.7957L15.0238 19.25C14.3675 18.5938 14 17.703 14 16.7755ZM33.25 8.75H29.75C28.7822 8.75 28 9.534 28 10.5C28 11.466 28.7822 12.25 29.75 12.25H33.25C34.2178 12.25 35 11.466 35 10.5C35 9.534 34.2178 8.75 33.25 8.75ZM33.25 15.75H29.75C28.7822 15.75 28 16.534 28 17.5C28 18.466 28.7822 19.25 29.75 19.25H33.25C34.2178 19.25 35 18.466 35 17.5C35 16.534 34.2178 15.75 33.25 15.75ZM33.25 22.75H29.75C28.7822 22.75 28 23.534 28 24.5C28 25.466 28.7822 26.25 29.75 26.25H33.25C34.2178 26.25 35 25.466 35 24.5C35 23.534 34.2178 22.75 33.25 22.75ZM42 10.5V24.5C42 29.3247 38.0747 33.25 33.25 33.25H22.75V36.75H29.75C30.7178 36.75 31.5 37.534 31.5 38.5C31.5 39.466 30.7178 40.25 29.75 40.25H12.25C11.2823 40.25 10.5 39.466 10.5 38.5C10.5 37.534 11.2823 36.75 12.25 36.75H19.25V33.25H8.75C3.92525 33.25 0 29.3247 0 24.5V10.5C0 5.67525 3.92525 1.75 8.75 1.75H33.25C38.0747 1.75 42 5.67525 42 10.5ZM38.5 10.5C38.5 7.6055 36.1445 5.25 33.25 5.25H8.75C5.8555 5.25 3.5 7.6055 3.5 10.5V24.5C3.5 27.3945 5.8555 29.75 8.75 29.75H33.25C36.1445 29.75 38.5 27.3945 38.5 24.5V10.5Z" fill="#0087F8"/>
</svg>
