<svg width="43" height="42" viewBox="0 0 43 42" fill="none" xmlns="http://www.w3.org/2000/svg">
<g clip-path="url(#clip0_7_45)">
<path d="M33.9166 3.5H32.1666V1.75C32.1666 1.28587 31.9823 0.840752 31.6541 0.512563C31.3259 0.184374 30.8808 0 30.4166 0C29.9525 0 29.5074 0.184374 29.1792 0.512563C28.851 0.840752 28.6666 1.28587 28.6666 1.75V3.5H14.6666V1.75C14.6666 1.28587 14.4823 0.840752 14.1541 0.512563C13.8259 0.184374 13.3808 0 12.9166 0C12.4525 0 12.0074 0.184374 11.6792 0.512563C11.351 0.840752 11.1666 1.28587 11.1666 1.75V3.5H9.41663C7.09683 3.50278 4.87285 4.42554 3.23251 6.06588C1.59217 7.70623 0.669405 9.93021 0.666626 12.25L0.666626 33.25C0.669405 35.5698 1.59217 37.7938 3.23251 39.4341C4.87285 41.0745 7.09683 41.9972 9.41663 42H33.9166C36.2364 41.9972 38.4604 41.0745 40.1007 39.4341C41.7411 37.7938 42.6638 35.5698 42.6666 33.25V12.25C42.6638 9.93021 41.7411 7.70623 40.1007 6.06588C38.4604 4.42554 36.2364 3.50278 33.9166 3.5ZM4.16663 12.25C4.16663 10.8576 4.71975 9.52226 5.70432 8.53769C6.68888 7.55312 8.02424 7 9.41663 7H33.9166C35.309 7 36.6444 7.55312 37.6289 8.53769C38.6135 9.52226 39.1666 10.8576 39.1666 12.25V14H4.16663V12.25ZM33.9166 38.5H9.41663C8.02424 38.5 6.68888 37.9469 5.70432 36.9623C4.71975 35.9777 4.16663 34.6424 4.16663 33.25V17.5H39.1666V33.25C39.1666 34.6424 38.6135 35.9777 37.6289 36.9623C36.6444 37.9469 35.309 38.5 33.9166 38.5Z" fill="#0087F8"/>
<path d="M21.6666 28.875C23.1164 28.875 24.2916 27.6997 24.2916 26.25C24.2916 24.8003 23.1164 23.625 21.6666 23.625C20.2169 23.625 19.0416 24.8003 19.0416 26.25C19.0416 27.6997 20.2169 28.875 21.6666 28.875Z" fill="#0087F8"/>
<path d="M12.9166 28.875C14.3664 28.875 15.5416 27.6997 15.5416 26.25C15.5416 24.8003 14.3664 23.625 12.9166 23.625C11.4669 23.625 10.2916 24.8003 10.2916 26.25C10.2916 27.6997 11.4669 28.875 12.9166 28.875Z" fill="#0087F8"/>
<path d="M30.4166 28.875C31.8664 28.875 33.0416 27.6997 33.0416 26.25C33.0416 24.8003 31.8664 23.625 30.4166 23.625C28.9669 23.625 27.7916 24.8003 27.7916 26.25C27.7916 27.6997 28.9669 28.875 30.4166 28.875Z" fill="#0087F8"/>
</g>
<defs>
<clipPath id="clip0_7_45">
<rect width="42" height="42" fill="white" transform="translate(0.666626)"/>
</clipPath>
</defs>
</svg>
