<svg width="42" height="42" viewBox="0 0 42 42" fill="none" xmlns="http://www.w3.org/2000/svg">
<path d="M42 21C42 21.966 41.216 22.75 40.25 22.75H31.5C30.534 22.75 29.75 21.966 29.75 21C29.75 20.034 30.534 19.25 31.5 19.25H40.25C41.216 19.25 42 20.034 42 21ZM40.25 35H31.5C30.534 35 29.75 35.784 29.75 36.75C29.75 37.716 30.534 38.5 31.5 38.5H40.25C41.216 38.5 42 37.716 42 36.75C42 35.784 41.216 35 40.25 35ZM17.5 7H40.25C41.216 7 42 6.216 42 5.25C42 4.284 41.216 3.5 40.25 3.5H17.5C16.534 3.5 15.75 4.284 15.75 5.25C15.75 6.216 16.534 7 17.5 7ZM24.5 19.25V22.75C24.5 24.6803 22.9303 26.25 21 26.25H17.5C15.5698 26.25 14 24.6803 14 22.75H7.00002V31.5C7.00002 33.4302 8.56977 35 10.5 35H14C14 33.0698 15.5698 31.5 17.5 31.5H21C22.9303 31.5 24.5 33.0698 24.5 35V38.5C24.5 40.4302 22.9303 42 21 42H17.5C15.5698 42 14 40.4302 14 38.5H10.5C6.63951 38.5 3.50002 35.3605 3.50002 31.5V10.5C1.56977 10.5 1.52588e-05 8.93025 1.52588e-05 7V3.5C1.52588e-05 1.56975 1.56977 0 3.50002 0H7.00002C8.93027 0 10.5 1.56975 10.5 3.5V7C10.5 8.93025 8.93027 10.5 7.00002 10.5V19.25H14C14 17.3197 15.5698 15.75 17.5 15.75H21C22.9303 15.75 24.5 17.3197 24.5 19.25ZM3.50002 7H7.00002V3.5H3.50002V7ZM17.5 38.5H21V35H17.5V38.5ZM21 19.25H17.5V22.75H21V19.25Z" fill="#0087F8"/>
</svg>
