<svg width="43" height="42" viewBox="0 0 43 42" fill="none" xmlns="http://www.w3.org/2000/svg">
<g clip-path="url(#clip0_7_39)">
<path d="M42.3333 32.375V35.875C42.3333 39.2525 39.5858 42 36.2083 42H6.45831C3.08081 42 0.333313 39.2525 0.333313 35.875V32.375C0.333313 28.9975 3.08081 26.25 6.45831 26.25H9.95831C10.9261 26.25 11.7083 27.0322 11.7083 28C11.7083 28.9678 10.9261 29.75 9.95831 29.75H6.45831C5.01106 29.75 3.83331 30.9277 3.83331 32.375V35.875C3.83331 37.3223 5.01106 38.5 6.45831 38.5H36.2083C37.6556 38.5 38.8333 37.3223 38.8333 35.875V32.375C38.8333 30.9277 37.6556 29.75 36.2083 29.75H32.7083C31.7406 29.75 30.9583 28.9678 30.9583 28C30.9583 27.0322 31.7406 26.25 32.7083 26.25H36.2083C39.5858 26.25 42.3333 28.9975 42.3333 32.375ZM42.3333 6.125V7.875C42.3333 11.2525 39.5858 14 36.2083 14H35.3333V15.75C35.3333 18.6445 32.9778 21 30.0833 21H23.0833V26.9412L25.3496 24.6768C26.0338 23.9925 27.1398 23.9925 27.8241 24.6768C28.5083 25.361 28.5083 26.467 27.8241 27.1513L23.4928 31.4842C22.3028 32.6725 20.3708 32.6742 19.1808 31.4842L14.8478 27.1513C14.1636 26.467 14.1636 25.361 14.8478 24.6768C15.5321 23.9925 16.6381 23.9925 17.3223 24.6768L19.5833 26.9377V20.9982H12.5833C9.68881 20.9982 7.33331 18.6427 7.33331 15.7482V13.9983H6.45831C3.08081 13.9983 0.333313 11.2507 0.333313 7.87325V6.12325C0.333313 2.7475 3.08081 0 6.45831 0H11.7083C15.0858 0 17.8333 2.7475 17.8333 6.125V7.875C17.8333 11.2525 15.0858 14 11.7083 14H10.8333V15.75C10.8333 16.7143 11.6173 17.5 12.5833 17.5H30.0833C31.0493 17.5 31.8333 16.7143 31.8333 15.75V14H30.9583C27.5808 14 24.8333 11.2525 24.8333 7.875V6.125C24.8333 2.7475 27.5808 0 30.9583 0H36.2083C39.5858 0 42.3333 2.7475 42.3333 6.125ZM11.7083 10.5C13.1556 10.5 14.3333 9.32225 14.3333 7.875V6.125C14.3333 4.67775 13.1556 3.5 11.7083 3.5H6.45831C5.01106 3.5 3.83331 4.67775 3.83331 6.125V7.875C3.83331 9.32225 5.01106 10.5 6.45831 10.5H11.7083ZM38.8333 6.125C38.8333 4.67775 37.6556 3.5 36.2083 3.5H30.9583C29.5111 3.5 28.3333 4.67775 28.3333 6.125V7.875C28.3333 9.32225 29.5111 10.5 30.9583 10.5H36.2083C37.6556 10.5 38.8333 9.32225 38.8333 7.875V6.125Z" fill="#0087F8"/>
</g>
<defs>
<clipPath id="clip0_7_39">
<rect width="42" height="42" fill="white" transform="translate(0.333313)"/>
</clipPath>
</defs>
</svg>
