<svg width="42" height="42" viewBox="0 0 42 42" fill="none" xmlns="http://www.w3.org/2000/svg">
<g clip-path="url(#clip0_7_61)">
<path d="M21 28C19.6155 28 18.2622 27.5895 17.111 26.8203C15.9599 26.0511 15.0627 24.9579 14.5328 23.6788C14.003 22.3997 13.8644 20.9922 14.1345 19.6344C14.4046 18.2765 15.0713 17.0292 16.0503 16.0503C17.0292 15.0713 18.2765 14.4046 19.6344 14.1345C20.9922 13.8644 22.3997 14.003 23.6788 14.5328C24.9579 15.0627 26.0511 15.9599 26.8203 17.111C27.5895 18.2622 28 19.6155 28 21C28 22.8565 27.2625 24.637 25.9497 25.9498C24.637 27.2625 22.8565 28 21 28ZM21 17.5C20.3078 17.5 19.6311 17.7053 19.0555 18.0899C18.4799 18.4744 18.0313 19.0211 17.7664 19.6606C17.5015 20.3002 17.4322 21.0039 17.5673 21.6828C17.7023 22.3618 18.0356 22.9854 18.5251 23.4749C19.0146 23.9644 19.6383 24.2977 20.3172 24.4328C20.9961 24.5678 21.6999 24.4985 22.3394 24.2336C22.9789 23.9687 23.5256 23.5201 23.9101 22.9445C24.2947 22.3689 24.5 21.6922 24.5 21C24.5 20.0717 24.1313 19.1815 23.4749 18.5251C22.8185 17.8688 21.9283 17.5 21 17.5ZM31.5 40.25C31.5 37.4652 30.3938 34.7945 28.4246 32.8254C26.4555 30.8562 23.7848 29.75 21 29.75C18.2152 29.75 15.5445 30.8562 13.5754 32.8254C11.6062 34.7945 10.5 37.4652 10.5 40.25C10.5 40.7141 10.6844 41.1593 11.0126 41.4874C11.3408 41.8156 11.7859 42 12.25 42C12.7141 42 13.1592 41.8156 13.4874 41.4874C13.8156 41.1593 14 40.7141 14 40.25C14 38.3935 14.7375 36.613 16.0503 35.3003C17.363 33.9875 19.1435 33.25 21 33.25C22.8565 33.25 24.637 33.9875 25.9497 35.3003C27.2625 36.613 28 38.3935 28 40.25C28 40.7141 28.1844 41.1593 28.5126 41.4874C28.8407 41.8156 29.2859 42 29.75 42C30.2141 42 30.6593 41.8156 30.9874 41.4874C31.3156 41.1593 31.5 40.7141 31.5 40.25ZM31.5 14C30.1155 14 28.7622 13.5895 27.611 12.8203C26.4599 12.0511 25.5627 10.9579 25.0328 9.67879C24.503 8.3997 24.3644 6.99224 24.6345 5.63437C24.9046 4.2765 25.5713 3.02922 26.5503 2.05026C27.5292 1.07129 28.7765 0.404603 30.1344 0.134506C31.4922 -0.13559 32.8997 0.00303297 34.1788 0.532846C35.4579 1.06266 36.5511 1.95987 37.3203 3.11101C38.0895 4.26216 38.5 5.61553 38.5 7C38.5 8.85652 37.7625 10.637 36.4497 11.9498C35.137 13.2625 33.3565 14 31.5 14ZM31.5 3.5C30.8078 3.5 30.1311 3.70527 29.5555 4.08986C28.9799 4.47444 28.5313 5.02107 28.2664 5.66061C28.0015 6.30015 27.9322 7.00389 28.0673 7.68282C28.2023 8.36175 28.5356 8.98539 29.0251 9.47488C29.5146 9.96436 30.1383 10.2977 30.8172 10.4328C31.4961 10.5678 32.1999 10.4985 32.8394 10.2336C33.4789 9.96868 34.0256 9.52007 34.4101 8.9445C34.7947 8.36893 35 7.69224 35 7C35 6.07175 34.6312 5.18151 33.9749 4.52513C33.3185 3.86875 32.4283 3.5 31.5 3.5ZM42 26.25C41.9972 23.4661 40.8901 20.797 38.9216 18.8285C36.953 16.8599 34.2839 15.7528 31.5 15.75C31.0359 15.75 30.5907 15.9344 30.2626 16.2626C29.9344 16.5908 29.75 17.0359 29.75 17.5C29.75 17.9641 29.9344 18.4093 30.2626 18.7374C30.5907 19.0656 31.0359 19.25 31.5 19.25C33.3565 19.25 35.137 19.9875 36.4497 21.3003C37.7625 22.613 38.5 24.3935 38.5 26.25C38.5 26.7141 38.6844 27.1593 39.0126 27.4874C39.3408 27.8156 39.7859 28 40.25 28C40.7141 28 41.1592 27.8156 41.4874 27.4874C41.8156 27.1593 42 26.7141 42 26.25ZM10.5 14C9.11553 14 7.76215 13.5895 6.61101 12.8203C5.45986 12.0511 4.56266 10.9579 4.03284 9.67879C3.50303 8.3997 3.36441 6.99224 3.6345 5.63437C3.9046 4.2765 4.57129 3.02922 5.55025 2.05026C6.52922 1.07129 7.7765 0.404603 9.13437 0.134506C10.4922 -0.13559 11.8997 0.00303297 13.1788 0.532846C14.4579 1.06266 15.5511 1.95987 16.3203 3.11101C17.0895 4.26216 17.5 5.61553 17.5 7C17.5 8.85652 16.7625 10.637 15.4497 11.9498C14.137 13.2625 12.3565 14 10.5 14ZM10.5 3.5C9.80777 3.5 9.13108 3.70527 8.5555 4.08986C7.97993 4.47444 7.53133 5.02107 7.26642 5.66061C7.00151 6.30015 6.9322 7.00389 7.06725 7.68282C7.2023 8.36175 7.53564 8.98539 8.02513 9.47488C8.51461 9.96436 9.13825 10.2977 9.81718 10.4328C10.4961 10.5678 11.1999 10.4985 11.8394 10.2336C12.4789 9.96868 13.0256 9.52007 13.4101 8.9445C13.7947 8.36893 14 7.69224 14 7C14 6.07175 13.6313 5.18151 12.9749 4.52513C12.3185 3.86875 11.4283 3.5 10.5 3.5ZM3.5 26.25C3.5 24.3935 4.2375 22.613 5.55025 21.3003C6.86301 19.9875 8.64348 19.25 10.5 19.25C10.9641 19.25 11.4092 19.0656 11.7374 18.7374C12.0656 18.4093 12.25 17.9641 12.25 17.5C12.25 17.0359 12.0656 16.5908 11.7374 16.2626C11.4092 15.9344 10.9641 15.75 10.5 15.75C7.71608 15.7528 5.04698 16.8599 3.07845 18.8285C1.10992 20.797 0.00277975 23.4661 0 26.25C0 26.7141 0.184374 27.1593 0.512563 27.4874C0.840752 27.8156 1.28587 28 1.75 28C2.21413 28 2.65925 27.8156 2.98744 27.4874C3.31563 27.1593 3.5 26.7141 3.5 26.25Z" fill="#0087F8"/>
</g>
<defs>
<clipPath id="clip0_7_61">
<rect width="42" height="42" fill="white"/>
</clipPath>
</defs>
</svg>
